<!--?xml version="1.0" encoding="utf-8"?-->
<!-- Generator: Adobe Illustrator 22.1.0, SVG Export Plug-In . SVG Version: 6.00 Build 0)  -->
<svg version="1.1" id="_x30_" xmlns="http://www.w3.org/2000/svg" xmlns:xlink="http://www.w3.org/1999/xlink" x="0px" y="0px" viewBox="0 0 800 612.1" style="enable-background:new 0 0 800 612.1;" xml:space="preserve">
<style type="text/css">
	.stblack{fill:#000000;}
</style>
<g>
	<path class="stblack" d="M703.1,384.6c6.2-5.6,14.3-9.3,21-14.3c7.1-5.2,13.8-10.8,19.9-17.1c30.6-31.2,42.2-75.9,32.9-118.5
		c-8.8-40.5-38.7-71.4-72.9-92.6c-4.1-2.5-4.2-2.3-6.2-5.9c-1.5-2.7-2.7-5.5-4.1-8.1c-3.2-6.1-6.9-12-11-17.5
		c-6.8-9.1-14.9-17.3-23.6-24.5c-17.3-14.2-37.7-23.5-59.5-28.4c-20.2-4.5-40.8-5.4-61.4-4.5c-7,0.3-13.6,0.2-19.9-3.1
		c-3.7-1.9-7.2-4.1-10.8-6.1c-7.7-4.3-15.5-8.4-23.6-12c-23.9-10.4-49.7-15.5-75.7-16.5c-29-1.2-58.4,1.6-85.9,11.2
		c-17.2,6-32.1,15.4-48.3,23.6c-10.2,5.2-22.8,2.5-33.9,2.4c-10.6,0-21.2,0.6-31.7,2.1c-22.6,3.1-44.9,10.2-63.8,23.1
		c-10.1,6.9-19.1,15.3-26.6,24.9c-4.1,5.3-7.7,10.9-10.9,16.7c-2.7,5.1-4.7,10.8-8.6,15.2c-6.6,7.5-17.5,12-25.5,18
		c-8.9,6.8-17.1,14.4-24.3,23c-16.8,20-26.5,44.6-28.4,70.6c-2,27.1,3.6,54.4,17.9,77.6c11.3,18.4,27.4,33.8,44.8,46.4
		c3.7,2.6,7.4,5.1,11.2,7.5c1.1,0.7,2.2,1.3,3.3,2c0.3,0.2,3.5,3,3,2.2c2,2.6,3.3,6.2,4.8,9.1c5.5,10.9,12.5,20.9,20.8,29.9
		c15.6,16.8,34.8,29.7,56.5,37.2c20,6.9,41.2,9.7,62.2,9.9c11,0.1,24.4-2.9,34.6,1.6c7.6,3.3,14.6,8.3,22,12.2
		c47.5,24.9,105.1,30.1,157.1,17.8c10.7-2.5,21.2-6,31.3-10.3c8.7,10.1,21.3,16.7,34.4,19.1c19.4,3.5,45,2.2,60-12.2
		c5.4-5.1,8.9-11.9,9.6-19.2c0.2-1.8,0.2-3.6,0.1-5.4c-0.2-3.3-1.2-4.9,2.2-6.2c4.5-1.8,10.4-2,15.2-3.2c19.6-5,38.3-13.6,53.8-26.7
		c8.5-7.2,16-15.7,22.1-25.1C692.7,402.3,695.8,391.2,703.1,384.6z M668.2,418.5c-21.5,23.5-51.6,35.7-82.6,40.4l0,0.2
		c4.6,19.3-8.4,34.3-26.1,40.1c-11.8,3.9-25,4.5-37.3,3c-10.4-1.2-24.5-4.2-30.2-13.9c-0.7-1.2-5.9-7.5-7.5-6.8
		c-24.1,10.6-49.9,15.8-76.2,16.9c-28.9,1.2-58.3-1.7-85.8-11.2c-17-5.9-31.9-15.2-47.8-23.4c-9.5-4.9-20.3-2.9-30.6-2.7
		c-10.6,0.2-21.2-0.3-31.7-1.6c-21.8-2.6-43.5-8.8-62.3-20.3c-11.7-7.1-21.3-16.3-29-27.6c-6.2-9.1-9.7-20.4-17.3-28.5
		c-7-7.3-16.1-11.8-24.2-17.6c-8.9-6.3-17.1-13.4-24.1-21.7c-17.3-20.7-26.6-46.6-27.8-73.4c-1.2-26.8,5.1-53.6,20-76.1
		c11.7-17.7,27.9-32,45.7-43.4c4-2.6,8.5-4.8,11.8-8.2c3.9-4,6-9.5,8.5-14.4c5.9-11.3,13.5-21.6,22.6-30.5
		c16.2-15.7,36.7-26,58.3-31.7c20.1-5.3,41.1-6.9,61.8-6.1c4.6,0.2,9.3,0.7,14,0.3c6-0.4,10.7-2.7,15.8-5.6
		c7.1-4.1,14.2-8.1,21.6-11.8c47.6-23.4,106.4-27,157.3-13c18.7,5.1,35.8,13.4,52.6,23c3.1,1.8,6.3,3.9,9.6,5.3
		c5.8,2.5,12.1,2.3,18.3,2c9.7-0.5,19.3-0.5,29,0c21.4,1.3,42.9,5.6,62.5,14.6c11.5,5.3,22.5,12.3,31.3,21.5
		c9.9,10.3,15.5,22.4,22.6,34.6c4.5,7.6,11.6,13,19,17.6c22.4,13.9,41,32.1,51.9,56.5c12.9,29.2,14.1,64.2,3.8,94.3
		c-8.4,24.8-25.2,45.5-45.8,61.4c-4.3,3.3-8.8,6.4-13.4,9.4c-4.7,3-9.9,5.6-13.4,10c-4.3,5.4-6.6,12.4-10.1,18.3
		C678.8,405.6,673.8,412.3,668.2,418.5z"></path>
	<path class="stblack" d="M572.5,516.9c-14.4,0-34,6.3-34.3,23.6c-0.3,17.4,19,23.6,33.3,23.6c14.6,0,33.7-6.3,34.3-23.6
		C605.2,523.1,587.5,516.9,572.5,516.9z M572.5,556c-9.8,0-23.8-3.5-24.2-15.5c-0.4-11.7,12.7-15.2,22.1-15.4
		c10-0.2,24.8,3,25.2,15.5C595.2,552.7,582.8,556,572.5,556z"></path>
	<path class="stblack" d="M604.3,567.3c-8.8,0.3-19.8,4.7-18.5,15.4c1.3,10.1,12.6,14.1,21.4,14.1c8.6,0,19.5-3.9,19.1-14.3
		c-0.4-10.6-11.8-15-20.8-15.2c-0.3,0-0.6,0-0.8,0C604.6,567.4,604.5,567.3,604.3,567.3z M616.7,581.7c-0.4,5.4-7.5,6.6-11.7,6.6
		c-4,0-10.3-0.9-9.3-6.3c1-5,7.1-5.9,11.4-6.1C610.9,576,617.1,576.5,616.7,581.7z"></path>
</g>
</svg>
